<svg height="270" viewBox="0 0 300 270" width="300" xmlns="http://www.w3.org/2000/svg"><g fill="none"><path d="m77.3677926 265.421992c-6.3534-1.374-82.69169994-13.7532-77.07239995-105.055199 5.61900001-91.3023005 12.67260005-118.7598005 42.35189995-128.8053005 29.679-10.0455 101.8239004-57.5799 158.4363004-12.3822 56.6124 45.1974 117.702299 85.7351995 93.4593 157.9026005-24.243 72.167399-28.2111 96.239099-91.4604 92.5581-63.2493-3.684001-95.5029 2.319-125.7147004-4.218001" fill="#f9f9f9"/><path d="m154.489393 239.171092c-23.7315-.400199-44.1243-8.5521-60.7899004-25.2255-16.8612-16.8687-24.975-37.5231-25.2162-61.3212.6276-23.262 8.7609-43.4256 25.2981-59.8943995 16.8951004-16.8252 37.4886004-25.2489 61.2921004-25.0551 23.3235.1902 43.4811 8.6811 59.9499 25.2384 16.6245 16.7138995 25.0323 37.0958995 24.976478 60.6506995-.056078 23.502-8.521178 43.8021-25.168478 60.4371-16.6674 16.6548-37.0305 24.7455-60.342 25.17" fill="#cbe7f4"/><path d="m176.135893 179.319592c-1.6821-1.442099-2.9655-3.358199-3.9006-5.662499-.6213-1.5303-2.4645-3.761101-2.6373-5.3055-.0798-.7113-.1032-1.428901-.0702-2.1438.0069-.1542.0207-.3192.1164-.4401.1218-.1533.3378-.1902.5334-.1947 2.2359-.051 3.2049 2.9667 4.2423 4.5327 1.5525 2.3436 3.1443 4.7124 5.3193 6.5325 2.2707 1.8999 5.2851 3.1317 8.1963 2.5932 3.5922-.6648 8.2059-5.0928 10.2624-8.0121 1.1676-1.6575 2.4756-4.0509 2.6829-6.1065.1899-1.883101-.7224-3.3051.6126-5.1138 2.4309-3.2934 6.9249-3.3951 10.2036-1.5567 3.0252 1.6965 4.8762 4.6428 6.6171 7.5312.9762 1.6203 2.8377 6.948 5.6115 5.0787.7506-.5058 1.164-1.3746 1.4775-2.2236 1.2372-3.348 1.4286-6.9315 1.8156-10.4454.3054-2.7747.4395-6.9591 3.2313-8.5506 2.4036-1.3704 3.7191.6 4.0368 2.7873.7896 5.4351 2.2323 10.7694 2.7312 16.2483.4872 5.3502-1.2876 9.4074-3.1935 14.3409-6.3948 16.5522-18.0333 30.9285-32.7507 40.8132-15.8898 10.6719-35.3631 15.7179-54.4368 14.0307-13.3584-1.1817-26.3649-5.6682-37.7202-12.7809-10.4532004-6.5475-22.4538004-16.5675-27.4182004-28.1931-.6336-1.4835-1.6188-3.1974-1.515-4.8648.1152-1.8516 1.4922-3.1161 1.2663-5.0877-.1422-1.2423-.6489-2.412-1.2045-3.5319-1.9617-3.954-4.3743-7.4253-5.9832-11.5812-1.6047-4.1445-2.7816-8.4537-3.5208-12.8358-2.304-13.6608.1614-26.7282 5.3274-39.4233.7047-1.7316 1.5276-3.4116 2.373-5.0763 1.4184-2.7924 3.6762-5.2089 6.4974-6.6093 3.3189-1.647 5.9838-1.035 9.4215-.6501 6.2586004.7008 9.8568004-6.1773 13.1616004-10.3035005 4.1637-5.1984 10.7922-10.3614 17.1903-12.3912.7968-.2529 1.6401-.4512 2.4645-.3105.8241.1404 1.626.6924 1.836 1.5018.3303 1.2741-.8397 2.4078-1.9203 3.1605-3.3186 2.3109-7.9074 4.2984-10.1619 7.8066-1.2447 1.9368-.4302 3.2478005 1.557 3.8208005 5.2992 1.5273 11.061-.6714 16.1538-1.9905005 5.6229-1.4565 11.4558-4.8336 10.5717-11.5035-.654-4.9365-2.8563-8.5116 1.0635-13.0041 3.7224-4.266 9.9228-3.8067 15.0816-3.9507 3.3726-.0939 8.0757.8478 10.6194 3.2466 9.1512 8.6307-3.0441 24.2787-10.6014 29.1345005-5.4663 3.5118-11.7633 5.532-17.25 9.0885-4.8747 3.1602-9.3723 7.0056-13.053 11.5125-1.2957 1.5864-2.151 2.9397-2.844 4.8195-.6858 1.8594-1.4502 3.7833-3.0852 5.016-2.7426 2.0673-7.0512 2.1153-8.2113 5.9346-.5847 1.9245-.0141 4.2654-.5142 6.2967-.6567 2.6676-2.1507 6.0825-4.0389 8.1009-2.1231 2.2695-5.4735 2.9187-7.5771 5.2905-2.1735 2.4507-3.7536 5.4372-4.5369 8.619-1.5708004 6.3816.4632 13.0764 4.6365 18.0864 3.4194 4.1052 7.7037 5.3733 12.852 5.5497 4.0383.1383 7.698.753 10.5063 3.8874 1.8459 2.0598 3.1413 4.5432 4.3863 6.9927 2.5188 4.9551 5.0136 8.4483 5.0436 14.2749.0084 1.6548-.0819 3.3195.1548 4.9575.54 3.7359 3.6807 7.1283 6.4158 9.5352 3.9171 3.447 8.7762 4.5882 13.8048 3.042 3.8808-1.1931 9.8604-4.1493 12.1155-7.7025 1.6371-2.5791.9981-4.0908 4.1568-5.5728 1.2249-.5748 2.4858-1.1523 3.4443-2.1078 3.6177-3.6069-1.5444-8.9106.8475-13.1274 3.0177-5.3193 8.7903-8.3355 11.6082-13.9578.6672-1.3314 1.1937-2.7909 1.0896-4.2765-.3213-4.5711-5.9016-4.209-9.1932-4.8057-2.3976-.4347-4.3824-1.383-5.9988-2.7693" fill="#fff"/><path d="m157.967293 158.068793c-1.3374-.2055-2.6631-.495901-4.0113-.8151-1.5882-.375901-3.2301-.7071-4.8711-.6333-1.5825.0714-3.1143.5064-4.7145.4035-1.8795-.1206-3.6654-1.0245-4.9635-2.3745-.6825-.7095-1.308-1.5891-1.6284-2.5287-.6642-1.947-.7281-3.3195-3.0915-3.8598-1.1292-.2583-2.3031-.1929-3.4608-.2337-3.1482-.1107-6.3939-3.5823-2.4924-5.7072 1.797-.9789 3.3936-2.6835 5.5767-2.694666 1.3116-.006534 2.5677.489366 3.8577.727266 1.2105.2235 2.466.222 3.6405.5916 2.4999.7869 3.5895 3.0243 5.5848 4.5123 1.2123.9042 2.7084 1.5171 4.2147 1.3857.8385-.0729 1.6716-.372 2.5026-.24 1.8753.2976 2.7627 2.523 4.4223 3.4455 2.1627 1.2024 5.2932.5628 7.6422.4671.4713-.0192.96-.0354 1.3962.1443.8019.33 1.221 1.2606 1.213891 2.1276-.018691 2.2857-1.750291 4.4661-3.870091 5.1894-1.0065.3435-2.0865.3987-3.1497.40022-1.2951.00178-2.5518-.11612-3.7983-.30752" fill="#fff"/><g fill="#6a79a8" transform="translate(67.2 67.2)"><path d="m166.903393 56.3822925c6.9357 18.9405 7.0113 40.737.0438 59.6918995-6.5526 17.8254-19.7307 33.325201-35.8743 43.2372-16.3839 10.0593-36.1833004 13.881901-55.1775004 11.3406-18.8859-2.5269-36.0993-11.3019-49.4172-24.9021-13.3806-13.6641-21.6861-31.152899-23.8422-50.1527995-.2703-2.382-.4449-4.7724-.5475-7.1673-.0231-.5403-1.4754-.2295-1.4493556.3885.8385556 19.5465005 7.6146556 38.1684005 20.4126556 53.0724005 12.5658 14.6343 29.4477 24.9309 48.4119 28.7031 18.8046 3.7404 38.7417004 1.4355 55.9674004-7.1193 17.1246-8.5047 31.6341-23.1108 39.9288-40.3506 8.7537-18.1929 10.4757-39.8343005 5.4339-59.3313005-.6825-2.6397-1.5042-5.2383-2.4417-7.7985-.2082-.5685-1.6476-.1548-1.4487.3882"/><path d="m132.352693 13.9490925c9.7143 6.3162 18.1758 14.5551 24.8574 24.0162.3204.4536 1.7178-.0582 1.3374-.5967-6.7299-9.5298-15.2727-17.8155-25.0569-24.177-.4518-.2937-1.7676.348-1.1379.7575"/><path d="m4.0873926 67.6166925c6.0102-27.5658 26.3634-51.4158 52.8276-61.4229 7.4004-2.7981 15.1902-4.4037 23.07-5.0106.7563-.0582 1.1676-.9864.1689-.9096-14.0904 1.0851-27.7173 5.499-39.5781 13.2249-12.1587 7.92-22.5921 18.9159-29.5719 31.6557-3.8826 7.0869-6.6531 14.7249-8.3733 22.6146-.1338.6141 1.3356.4041 1.4568-.1521"/><path d="m.2983926 77.9564925c6.7377 3.9504 13.4754 7.9005 20.2131 11.8509 10.7277 6.2895 21.4554 12.5793005 32.1828 18.8687995 2.4474 1.4349 4.8945 2.869501 7.3416 4.3044.3456.2025 1.0665.0387 1.2513-.3354 2.7879-5.6466 5.5758-11.2935 8.3637-16.9400995 4.4211-8.955 8.8422-17.9097 13.2636-26.8644 1.0236-2.0736 2.0475-4.1472 3.0714-6.2208-.4173.1119-.8343.2235-1.2513.3354 5.3925 2.5542 10.7853 5.1087 16.1778004 7.6629 8.5527 4.0515 17.1057 8.1027 25.6587 12.1542 1.9866.9411 3.9729 1.8819 5.9595 2.823.3291.1557.9204.0786 1.1601-.2214 9.0378-11.3064 18.0756-22.6128 27.1134-33.9192 1.2888-1.6125 2.5776-3.225 3.8667-4.8372.5493-.6873-.8361-.7395-1.1808-.3084-9.0378 11.3064-18.0753 22.6128-27.1131 33.9189-1.2891 1.6125-2.5779 3.225-3.8667 4.8375.3867-.0738.7734-.1476 1.1601-.2214-5.3925-2.5545-10.785-5.1087-16.1778-7.6632-8.5527-4.0512-17.1057-8.1027-25.6587004-12.1542-1.9863-.9408-3.9729-1.8819-5.9595-2.823-.3624-.1716-1.0551-.0615-1.251.3354-2.7879 5.6466-5.5761 11.2935-8.364 16.9404-4.4211 8.9547-8.8422 17.9094-13.2633 26.8640995-1.0239 2.0736-2.0478 4.1472-3.0714 6.2208.417-.1116.834-.2235 1.251-.3351-6.7377-3.9504-13.4754-7.9005-20.2131-11.8509-10.7274-6.2894995-21.4551-12.5792995-32.1828-18.8687995-2.4474-1.4349-4.8945-2.8695-7.3416-4.3044-.4578-.2682-1.7748.3789-1.1397.7512"/></g><path d="m77.1514926 145.330492c0 4.7361-3.8394 8.575801-8.5758 8.575801s-8.5758-3.8397-8.5758-8.575801c0-4.7364 3.8394-8.5761 8.5758-8.5761s8.5758 3.8397 8.5758 8.5761" fill="#fff"/><path d="m76.4266926 145.419893c-.1032 4.343999-3.4089 8.283599-7.986 8.061-4.3206-.21-7.7073-4.0341-7.7064-8.292301.0009-4.4619 3.7143-8.4087 8.3031-7.979099 4.2858.4014 7.2903 4.138799 7.3896 8.315099.0111.461401 1.4625.177901 1.449-.3882-.2001-8.4084-10.8756-11.637599-16.3071-5.6079-2.6289 2.918101-3.0306 7.305901-.936 10.637101 2.0313 3.2307 5.9826 4.7082 9.6708 3.9537 4.2783-.8757 7.4679-4.483801 7.5727064-8.878501.0142936-.6021-1.4380064-.307499-1.4497064.179101" fill="#6a79a8"/><path d="m136.381693 179.804992c0 4.7361-3.8397 8.5758-8.5758 8.5758-4.7364 0-8.5758-3.8397-8.5758-8.5758 0-4.7364 3.8394-8.5758 8.5758-8.5758 4.7361 0 8.5758 3.8394 8.5758 8.5758" fill="#fff"/><path d="m135.656893 179.894392c-.1035 4.344-3.4089 8.2836-7.986 8.061-4.3206-.21-7.7073-4.0341-7.7064-8.292299.0009-4.4616 3.7143-8.408701 8.3028-7.978801 4.2861.4014 7.2906 4.1385 7.3899 8.3148.0111.4617 1.4622.1779 1.449-.388199-.2001-8.408401-10.8759-11.637601-16.3074-5.6079-2.6289 2.918399-3.0303 7.305899-.9357 10.6371 2.0313 3.230699 5.9826 4.708199 9.6708 3.9537 4.2783-.8757 7.4679-4.483801 7.572702-8.878201.013998-.6024-1.438002-.3075-1.449702.1788" fill="#6a79a8"/><path d="m161.080393 129.779393c0 4.7364-3.8397 8.576099-8.5758 8.576099-4.7364 0-8.5758-3.839699-8.5758-8.576099 0-4.7361 3.8394-8.575801 8.5758-8.575801 4.7361 0 8.5758 3.8397 8.5758 8.575801" fill="#fff"/><path d="m156.626893 122.953193c2.847 2.029799 4.3242 5.482499 3.489 8.937899-.8346 3.4524-3.9228 6.1245-7.5387 6.0438-7.7574-.1728-10.6149-10.546199-4.4823-15.002399.7911-.5748-.4416-.7731-.9015-.4389-3.3411 2.427599-4.9548 6.684-3.3897 10.635899 1.386 3.5007 4.8915 5.707201 8.628 5.636401 3.6054-.0684 7.0536-2.1399 8.5713-5.4504 1.7922-3.909.4317-8.463-3.0312-10.932-.4194-.2991-1.7466.2832-1.3449.5697" fill="#6a79a8"/><path d="m208.876393 152.419792c0 4.7361-3.8397 8.5758-8.5761 8.5758-4.7361 0-8.5758-3.8397-8.5758-8.5758 0-4.7364 3.8397-8.5758 8.5758-8.5758 4.7364 0 8.5761 3.8394 8.5761 8.5758" fill="#fff"/><path d="m208.151593 152.509192c-.1035 4.344001-3.4089 8.2836-7.986 8.061-4.3206-.21-7.7073-4.0341-7.7064-8.2923.0009-4.4616 3.7143-8.4087 8.3028-7.9788 4.2858.4014 7.2903 4.1385 7.3899 8.3148.0108.4617 1.4622.1779 1.4487-.3882-.2001-8.4084-10.8756-11.6376-16.3071-5.6079-2.6289 2.9184-3.0306 7.3059-.9357 10.637101 2.0313 3.2307 5.9826 4.7085 9.6708 3.9537 4.2783-.8757 7.4679-4.4838 7.572406-8.8782.014294-.602401-1.438006-.3075-1.449406.1788" fill="#6a79a8"/><path d="m239.520493 113.999992c0 4.736401-3.8394 8.575801-8.5758 8.575801-4.7361 0-8.5758-3.8394-8.5758-8.575801 0-4.7364 3.8397-8.5758 8.5758-8.5758 4.7364 0 8.5758 3.8394 8.5758 8.5758" fill="#fff"/><path d="m238.795693 114.089393c-.1032 4.343999-3.4089 8.283599-7.986 8.061299-4.3203-.2103-7.707-4.034399-7.7064-8.2926.0009-4.4616 3.7143-8.408699 8.3031-7.9788 4.2858.401401 7.2903 4.1388 7.3896 8.3148.0111.4617 1.4625.1782 1.449-.3882-.2001-8.4084-10.8756-11.6376-16.3071-5.6079-2.6289 2.918401-3.0306 7.306201-.936 10.6374 2.0313 3.230401 5.9826 4.7082 9.6708 3.9534 4.2783-.8754 7.4679-4.4838 7.572706-8.8782.014294-.602399-1.438006-.307499-1.449706.178801" fill="#6a79a8"/><path d="m208.311193 79.1027925-53.3415.0225001c-.7047 0-1.2762-.5706001-1.2765-1.2750001l-.016801-40.3503c0-.7044.570601-1.2759 1.275001-1.2762l53.3415-.0225001c.7047 0 1.2762.5706001 1.2765 1.2753001l-9.9201 20.0691 9.9369 20.2809c0 .7047-.5706 1.2759-1.275 1.2762" fill="#ef8f7f"/><path d="m202.103893 75.0440925-47.2569.0204001c-.6378 0-1.155-.5166001-1.1553-1.1547001l-.015301-36.5304c0-.6378.516601-1.1553 1.154401-1.1556l48.2922-.0204001c.6378 0 1.1553.5166001 1.1553 1.1547001l-10.0161 19.2048 8.6511 17.3256c.0003.6378-.1713 1.1553-.8094 1.1556" fill="#f9ab98"/><path d="m157.778293 36.7835925c10.0809-.0042 20.1621-.0084 30.243-.0129 5.5929-.0024 11.1858-.0045 16.7787-.0069.6852-.0003 2.6574-.378 3.1716.2871.3918.5067-.222 1.1973-.4758 1.7082-.5766 1.1604-1.1529 2.3211-1.7295 3.4815-1.4964 3.0126-2.9931 6.0252-4.4895 9.0378-.6438 1.296-1.2876 2.5923-1.9314 3.8883-.3111.6261-.8676 1.3797-1.0257 2.0649-.2349 1.0176.999 2.6358 1.4346 3.5289 1.4313 2.9355 2.8626 5.8713 4.2939 8.8068 1.2285 2.5194 2.457 5.0388 3.6855 7.5585.2733.5604.8502 1.1433-.0663 1.416-.2511.0744-.6354 0-.8946.0003-4.6953.0018-9.3909.0039-14.0862.006-11.4813.0048-22.9626.0096-34.4436.0144-.2328 0-.4653.0003-.6978.0003-.8493.0003-1.0929 1.1229-.1119 1.1226 10.4328-.0045 20.8656-.009 31.2984-.0132 5.5761-.0024 11.1519-.0048 16.728-.0072 1.0431-.0003 2.5146.2268 3.4026-.4503 1.6716-1.2741-.2481-3.6495-.9072-5.0013-2.676-5.4882-5.352-10.9764-8.028-16.4646-.0954-.1959-.1878-.3939-.2868-.5883.2382.4674-.147.4236.1437.1275.5475-.5574.8838-1.779 1.2276-2.4711 1.4664-2.9517 2.9325-5.9031 4.3986-8.8548 1.2654-2.5473 2.5308-5.0946 3.7959-7.6419.3381-.6801.6375-1.1712.0876-1.9248-.4734-.648-1.212-.7347-1.944-.7551-4.3245-.1206-8.67.0036-12.9954.0054-11.9073.0051-23.8143.0102-35.7213.015-.2475.0003-.4953.0003-.7428.0003-.8493.0006-1.0929 1.1229-.1119 1.1226" fill="#6a79a8"/><path d="m152.977993 130.299293h-.9048c-1.302 0-2.3574-1.0557-2.3574-2.3577v-94.1553005c0-1.302 1.0554-2.3574 2.3574-2.3574h.9048c1.302 0 2.3577 1.0554 2.3577 2.3574v94.1553005c0 1.302-1.0557 2.3577-2.3577 2.3577" fill="#fff"/><path d="m153.254293 129.867593c-2.796 0-2.8125-1.720501-2.8125-3.750001 0-2.1177 0-4.2354 0-6.3531 0-7.503 0-15.0063 0-22.5095995 0-17.406 0-34.8123 0-52.2183 0-3.7248-.2322-7.5342 0-11.2542.168-2.6913 3.9378-2.4612 4.1676.0999.0243.2679 0 .5487 0 .8175v5.4132 49.044c0 12.8024995.1863 25.6205995 0 38.4218995-.0147 1.0266-.1638 2.1852-1.5384 2.2962-.7308.0588-1.1883.9291-.1857.8484 1.7025-.1374 3.0735-1.1991 3.1764-2.9682.0249-.4296 0-.8688 0-1.299 0-2.1717 0-4.3434 0-6.5151 0-7.8933 0-15.7866 0-23.6798995 0-17.8533 0-35.7066 0-53.5596 0-2.328 0-4.6557 0-6.9837 0-1.4673.2652-3.2304-1.1181-4.197-1.6137-1.1277-4.6992-.6234-5.6424 1.1544-.3087.582-.3054 1.1265-.3114 1.7403-.0177 1.7424 0 3.486 0 5.2287v51.2817 25.5611995c0 3.816-.2235 7.7073 0 11.5185.1278 2.1825 1.8282 2.7249 3.7122 2.7249.5718 0 1.5282-.8631.5523-.8631" fill="#6a79a8"/></g></svg>